<svg id="Layer_1" data-name="Layer 1" xmlns="http://www.w3.org/2000/svg" viewBox="0 0 74.45 144.47"><defs><style>.cls-1{fill:#fff;}.cls-2{fill:#231f20;}</style></defs><rect class="cls-1" width="74.45" height="144.47"/><rect class="cls-2" x="10.92" y="86.41" width="52.65" height="0.5"/><path class="cls-2" d="M30.8,68a.91.91,0,0,0-.85.59L28.23,73l-.15.5L27.94,73l-1.33-4.24a.05.05,0,0,0,0,0h0a.91.91,0,0,0-.85-.61H23.59a.92.92,0,0,0-.87.91,2,2,0,0,0,.11.47l.28.88L22.05,73l-.16.49-.14-.5-1.33-4.25a.08.08,0,0,1,0,0h0a.93.93,0,0,0-.86-.61H17.4a.92.92,0,0,0-.86.91,1.89,1.89,0,0,0,.1.47L19.86,79a.91.91,0,0,0,.88.68.89.89,0,0,0,.86-.63l2.25-5.69.17-.51.14.5L26.05,79a.91.91,0,0,0,1.75,0l3.82-9.72a1,1,0,0,0,.09-.39A.92.92,0,0,0,30.8,68"/><path class="cls-2" d="M46.84,68a.91.91,0,0,0-.85.59L44.28,73l-.17.5L44,73l-1.35-4.24v0h0a.93.93,0,0,0-.86-.61H39.63a.91.91,0,0,0-.86.91,1.89,1.89,0,0,0,.1.47l.28.88L38.09,73l-.17.49-.13-.5-1.32-4.25s0,0,0,0h0a.92.92,0,0,0-.85-.61H33.45a.91.91,0,0,0-.87.91,2.49,2.49,0,0,0,.1.47L35.91,79a.89.89,0,0,0,.87.68.93.93,0,0,0,.87-.63l2.25-5.69.16-.51.14.5L42.09,79a.91.91,0,0,0,1.76,0l3.81-9.72a.86.86,0,0,0,.09-.39.92.92,0,0,0-.91-.92"/><path class="cls-2" d="M57.26,68H49.74a.78.78,0,0,0-.78.79h0v10h0a.85.85,0,0,0,.84.82h2.13a.85.85,0,0,0,.83-.84V74.12h3.07a.82.82,0,0,0,.81-.82.83.83,0,0,0-.83-.82h-3V69.8H57.3a.89.89,0,0,0,0-1.77"/><path class="cls-2" d="M45.6,36.2c1.36,1.53,1.51,6.09,4.95,4.27,2.07-1.09,2-5.69-.72-7.35-2.23-1.32-3.45.46-4.26,2.64-.06.18-.07.35,0,.44"/><path class="cls-2" d="M40.25,35.47c-1.43,1.19-2.42,4.46-5.07,3.35-2.13-1.09-2.34-5.33,1.34-7.28,2.57-1.18,3.87,1.16,3.89,3.64a.53.53,0,0,1-.16.29"/><path class="cls-2" d="M43.8,43.8c1.42-.14,1.1-1.46,0-1.79a12.89,12.89,0,0,0-3.46-.46c-1.82.05-1.78,1.44-.83,1.68a3,3,0,0,1,1.81,1.13c.56,1.1.31-.33,2.45-.56"/><path class="cls-2" d="M50.5,20.23a4,4,0,0,1,6.44-.91c1.72,1.61,2,3.46,1.33,4.77-.89,1.75-3.17,3.88-4.66,1.82A8.34,8.34,0,0,0,50.8,23.6c-1.17-.49-1.39-1.55-.3-3.37"/><path class="cls-2" d="M57.6,33.33c-.16-.53-.42-.5-.41-.06.15,5.41-3.08,11.21-10,11.25-1.77,0-1.24,2.83-4.47,1.41-2.33-1.57-3.66,1.52-5.31-1.8a2.16,2.16,0,0,0-1.61-1.52c-6.83-1.69-9-11.1-3-18.69,1.19.71,1.62.82,2.89-.34a9.08,9.08,0,0,1,2.38-1.51c1.45-.56,2.24-1.17,1-3.93-1.6-3.59-4.89-2.57-6.4-1.34-1.69,1.41-2.89,3.66-.7,6.32-6.12,4.13-7.17,9.2-7,13.6.15,4.69-1.05,4.29.44,9.06.14.42-.16.41-.38.28-6.38-4.09-9.83-16.54.11-23.41.23-.2.14-.46-.68,0C15.81,27.22,15,36,16.45,42c.7,2.88-.36,3.41.75,7.19C19.76,57,22,57.65,25,57.88c5.61,0,1.81-3.1,2-7,0-.22.28-.33.44.13C30.57,58,32.75,64.26,40.87,63.67c4.7-.61,2.09-3,1.81-4.27-3.46-11.47,4.93-14.18,2.55-3-1.57,6.41,3.39,5.76,6.88,3.46s8.1-18,5.49-26.54M43.92,46.9c-.77,2.05-4.81,1.35-4.94-.64,0-.08.11-.06.16,0a21.25,21.25,0,0,0,4.66.61s.14,0,.12.08"/><path class="cls-2" d="M25.91,60.8a1.51,1.51,0,1,1-1.51-1.5,1.52,1.52,0,0,1,1.51,1.5M24.4,59a1.81,1.81,0,1,0,1.8,1.8A1.81,1.81,0,0,0,24.4,59"/><path class="cls-2" d="M24.92,61.08a.45.45,0,0,1-.47.37.6.6,0,0,1-.57-.65.56.56,0,0,1,.56-.64.46.46,0,0,1,.48.35h.25a.7.7,0,0,0-.73-.62.83.83,0,0,0-.85.91.85.85,0,0,0,.86.91.73.73,0,0,0,.73-.63Z"/><path class="cls-2" d="M57.56,65.1a1.51,1.51,0,1,1-3,0,1.51,1.51,0,0,1,3,0m-1.5-1.8a1.8,1.8,0,1,0,1.8,1.8,1.8,1.8,0,0,0-1.8-1.8"/><path class="cls-2" d="M55.75,65.22H56l.45.74h.28l-.48-.76a.44.44,0,0,0,.44-.46c0-.34-.19-.48-.59-.48h-.66V66h.27v-.74m0-.22v-.53h.35c.17,0,.37,0,.37.25s-.2.28-.42.28Z"/><path class="cls-2" d="M13.85,96.73l1-.09a1.17,1.17,0,0,0,.36.72,1.31,1.31,0,0,0,1.47,0,.61.61,0,0,0,.25-.48.48.48,0,0,0-.1-.31.84.84,0,0,0-.37-.21,8.29,8.29,0,0,0-.81-.22,2.78,2.78,0,0,1-1.14-.5,1.32,1.32,0,0,1-.46-1,1.24,1.24,0,0,1,.22-.71,1.37,1.37,0,0,1,.62-.51,2.47,2.47,0,0,1,1-.17,2.09,2.09,0,0,1,1.42.41,1.46,1.46,0,0,1,.5,1.1l-1,0a.88.88,0,0,0-.28-.56,1,1,0,0,0-.64-.17,1.18,1.18,0,0,0-.69.18.38.38,0,0,0-.16.32.38.38,0,0,0,.15.3,2.69,2.69,0,0,0,.93.34,4.28,4.28,0,0,1,1.09.36,1.34,1.34,0,0,1,.55.5,1.46,1.46,0,0,1,.2.8,1.55,1.55,0,0,1-.23.81,1.45,1.45,0,0,1-.68.56,2.89,2.89,0,0,1-1.09.18A2.12,2.12,0,0,1,14.46,98,1.92,1.92,0,0,1,13.85,96.73Z"/><path class="cls-2" d="M18.78,98.36v-5H20.4a5.73,5.73,0,0,1,1.2.08,1.27,1.27,0,0,1,.72.49,1.49,1.49,0,0,1,.29,1,1.67,1.67,0,0,1-.16.78,1.48,1.48,0,0,1-.43.49,1.52,1.52,0,0,1-.52.24,5.74,5.74,0,0,1-1.05.07h-.66v1.89Zm1-4.16v1.42h.55a2.36,2.36,0,0,0,.8-.08.7.7,0,0,0,.32-.24.74.74,0,0,0,.11-.39.61.61,0,0,0-.16-.45.7.7,0,0,0-.41-.23,5.42,5.42,0,0,0-.72,0Z"/><path class="cls-2" d="M23.24,95.89a3.27,3.27,0,0,1,.23-1.29,2.24,2.24,0,0,1,.47-.68,1.86,1.86,0,0,1,.64-.46,2.78,2.78,0,0,1,1.08-.19,2.4,2.4,0,0,1,1.78.68,2.66,2.66,0,0,1,.66,1.91,2.61,2.61,0,0,1-.66,1.9,2.33,2.33,0,0,1-1.76.69,2.37,2.37,0,0,1-1.78-.68A2.6,2.6,0,0,1,23.24,95.89Zm1,0a1.88,1.88,0,0,0,.39,1.29,1.37,1.37,0,0,0,2,0,2,2,0,0,0,.38-1.31,1.88,1.88,0,0,0-.37-1.28,1.28,1.28,0,0,0-1-.43,1.29,1.29,0,0,0-1,.43A1.93,1.93,0,0,0,24.28,95.85Z"/><path class="cls-2" d="M28.9,98.36v-5h1l2.05,3.35V93.35h.94v5h-1l-2-3.26v3.26Z"/><path class="cls-2" d="M33.69,96.73l1-.09a1.17,1.17,0,0,0,.36.72,1.08,1.08,0,0,0,.74.24,1.1,1.1,0,0,0,.73-.21.61.61,0,0,0,.25-.48.48.48,0,0,0-.1-.31.84.84,0,0,0-.37-.21c-.12,0-.39-.12-.81-.22a2.78,2.78,0,0,1-1.14-.5,1.28,1.28,0,0,1-.46-1,1.24,1.24,0,0,1,.22-.71,1.37,1.37,0,0,1,.62-.51,2.44,2.44,0,0,1,1-.17,2.09,2.09,0,0,1,1.42.41,1.46,1.46,0,0,1,.5,1.1l-1,0a.93.93,0,0,0-.28-.56,1,1,0,0,0-.64-.17,1.13,1.13,0,0,0-.69.18.38.38,0,0,0-.16.32.38.38,0,0,0,.15.3,2.52,2.52,0,0,0,.93.34A4.43,4.43,0,0,1,37,95.6a1.4,1.4,0,0,1,.55.5,1.58,1.58,0,0,1,0,1.61,1.42,1.42,0,0,1-.67.56,2.93,2.93,0,0,1-1.09.18A2.12,2.12,0,0,1,34.3,98,1.88,1.88,0,0,1,33.69,96.73Z"/><path class="cls-2" d="M38.41,95.89a3.1,3.1,0,0,1,.23-1.29,2.4,2.4,0,0,1,.46-.68,2,2,0,0,1,.65-.46,2.78,2.78,0,0,1,1.08-.19A2.37,2.37,0,0,1,42.6,94a3.06,3.06,0,0,1,0,3.81,2.33,2.33,0,0,1-1.77.69,2.37,2.37,0,0,1-1.77-.68A2.6,2.6,0,0,1,38.41,95.89Zm1,0a1.88,1.88,0,0,0,.39,1.29,1.28,1.28,0,0,0,1,.44,1.25,1.25,0,0,0,1-.43,1.92,1.92,0,0,0,.39-1.31,1.83,1.83,0,0,0-.38-1.28,1.25,1.25,0,0,0-1-.43,1.28,1.28,0,0,0-1,.43A1.93,1.93,0,0,0,39.45,95.85Z"/><path class="cls-2" d="M44.06,98.36v-5h2.13a3.6,3.6,0,0,1,1.17.14,1.17,1.17,0,0,1,.58.48,1.4,1.4,0,0,1,.22.79,1.36,1.36,0,0,1-.33.93,1.59,1.59,0,0,1-1,.46,2.41,2.41,0,0,1,.54.42,6.64,6.64,0,0,1,.58.82l.61,1H47.36l-.74-1.09a5.15,5.15,0,0,0-.53-.73.64.64,0,0,0-.3-.21,1.6,1.6,0,0,0-.51-.06h-.21v2.09Zm1-2.89h.75a3.94,3.94,0,0,0,.91-.06A.5.5,0,0,0,47,95.2a.66.66,0,0,0,.11-.38.62.62,0,0,0-.14-.41.58.58,0,0,0-.38-.19c-.08,0-.33,0-.74,0h-.79Z"/><path class="cls-2" d="M49.08,98.36v-5h1v5Z"/><path class="cls-2" d="M51.07,98.36v-5h1L54.1,96.7V93.35H55v5H54L52,95.1v3.26Z"/><path class="cls-2" d="M58.44,96.52v-.84h2.18v2a2.48,2.48,0,0,1-.92.54,3.27,3.27,0,0,1-1.22.24,2.75,2.75,0,0,1-1.37-.33,2.16,2.16,0,0,1-.88-.94,3.16,3.16,0,0,1-.29-1.34,2.86,2.86,0,0,1,.33-1.39,2.16,2.16,0,0,1,1-.93,2.54,2.54,0,0,1,1.2-.25,2.36,2.36,0,0,1,1.45.39,1.77,1.77,0,0,1,.68,1.08l-1,.19a1,1,0,0,0-.39-.58,1.17,1.17,0,0,0-.73-.22,1.37,1.37,0,0,0-1.06.42A1.78,1.78,0,0,0,57,95.8a2,2,0,0,0,.4,1.34,1.34,1.34,0,0,0,1,.44,1.76,1.76,0,0,0,.63-.12,2.19,2.19,0,0,0,.55-.3v-.64Z"/><path class="cls-2" d="M20.88,107.36V103.2H19.39v-.85h4v.85H21.89v4.16Z"/><path class="cls-2" d="M24,107.36v-5h1v2h2v-2h1v5H27v-2.19H25v2.19Z"/><path class="cls-2" d="M29.08,107.36v-5h3.71v.85h-2.7v1.11h2.52v.85H30.09v1.36h2.8v.84Z"/><path class="cls-2" d="M35.69,102.35h1.85a3.7,3.7,0,0,1,1,.1,1.7,1.7,0,0,1,.76.46,2.18,2.18,0,0,1,.48.81,3.72,3.72,0,0,1,.16,1.19,3.3,3.3,0,0,1-.15,1.06,2.31,2.31,0,0,1-.54.89,1.79,1.79,0,0,1-.71.4,3.1,3.1,0,0,1-.9.1h-1.9Zm1,.85v3.32h.76a2.87,2.87,0,0,0,.61,0,.94.94,0,0,0,.41-.21,1,1,0,0,0,.26-.48,3.21,3.21,0,0,0,.1-.92,2.94,2.94,0,0,0-.1-.89,1.11,1.11,0,0,0-.28-.48,1,1,0,0,0-.47-.24,4.71,4.71,0,0,0-.83,0Z"/><path class="cls-2" d="M45.18,106.75l-.58.74a3.28,3.28,0,0,1-.82-.57,1.94,1.94,0,0,1-.65.4,2.15,2.15,0,0,1-.81.13,1.81,1.81,0,0,1-1.41-.52,1.38,1.38,0,0,1-.36-.94,1.43,1.43,0,0,1,.28-.87,2.39,2.39,0,0,1,.86-.66,2.72,2.72,0,0,1-.38-.58,1.21,1.21,0,0,1-.13-.53,1,1,0,0,1,.36-.77,1.54,1.54,0,0,1,1-.31,1.45,1.45,0,0,1,1,.33,1.05,1.05,0,0,1,.19,1.39,2.56,2.56,0,0,1-.73.62l.69.92A1.86,1.86,0,0,0,44,105l.87.2a5,5,0,0,1-.22.68,2.15,2.15,0,0,1-.21.35,3.23,3.23,0,0,0,.42.34A3,3,0,0,0,45.18,106.75Zm-3-1.68a1.26,1.26,0,0,0-.49.4.86.86,0,0,0-.17.49.69.69,0,0,0,.2.5.73.73,0,0,0,.55.2,1,1,0,0,0,.43-.09,2.27,2.27,0,0,0,.46-.29Zm.38-1,.26-.2a.58.58,0,0,0,.28-.44.4.4,0,0,0-.13-.31.54.54,0,0,0-.38-.14.52.52,0,0,0-.36.12.36.36,0,0,0-.13.26.78.78,0,0,0,.22.44Z"/><path class="cls-2" d="M50.32,107.36h-1.1l-.43-1.13h-2l-.41,1.13H45.29l2-5h1.07Zm-1.86-2-.69-1.86-.68,1.86Z"/><path class="cls-2" d="M50.86,102.35h1.85a3.76,3.76,0,0,1,.95.1,1.72,1.72,0,0,1,.75.46,2.18,2.18,0,0,1,.48.81,3.7,3.7,0,0,1,.17,1.19A3.28,3.28,0,0,1,54.9,106a2.18,2.18,0,0,1-.53.89,1.91,1.91,0,0,1-.72.4,3.07,3.07,0,0,1-.89.1h-1.9Zm1,.85v3.32h.75a2.74,2.74,0,0,0,.61,0,.89.89,0,0,0,.41-.21,1,1,0,0,0,.27-.48,3.21,3.21,0,0,0,.1-.92,2.94,2.94,0,0,0-.1-.89,1.12,1.12,0,0,0-.29-.48.92.92,0,0,0-.47-.24,4.71,4.71,0,0,0-.83,0Z"/><path class="cls-2" d="M16.06,116.37v-5h1l2.05,3.34v-3.34H20v5H19l-2-3.27v3.27Z"/><path class="cls-2" d="M21.11,116.37v-5h3.71v.84h-2.7v1.11h2.51v.85H22.12v1.36h2.8v.85Z"/><path class="cls-2" d="M26.49,116.37l-1.2-5h1l.75,3.44.92-3.44h1.2l.88,3.5.77-3.5h1l-1.22,5H29.58l-1-3.75-1,3.75Z"/><path class="cls-2" d="M34.33,111.36h2a5,5,0,0,1,.89,0,1.26,1.26,0,0,1,.52.2,1.31,1.31,0,0,1,.39.42,1.18,1.18,0,0,1,.15.59,1.12,1.12,0,0,1-.19.64,1.09,1.09,0,0,1-.51.44,1.29,1.29,0,0,1,.7.46,1.15,1.15,0,0,1,.25.75,1.51,1.51,0,0,1-.59,1.19,1.57,1.57,0,0,1-.68.23c-.17,0-.58,0-1.22,0H34.33Zm1,.83v1.16H36c.39,0,.64,0,.73,0a.68.68,0,0,0,.41-.18.53.53,0,0,0,.15-.39.55.55,0,0,0-.13-.38.61.61,0,0,0-.38-.17c-.1,0-.39,0-.87,0Zm0,2v1.34h.94a4.59,4.59,0,0,0,.69,0,.61.61,0,0,0,.37-.2.58.58,0,0,0,.14-.42.64.64,0,0,0-.11-.39.62.62,0,0,0-.31-.23,3.92,3.92,0,0,0-.9-.07Z"/><path class="cls-2" d="M39.41,116.37v-5h1v4.12h2.52v.85Z"/><path class="cls-2" d="M43.46,113.89a3.2,3.2,0,0,1,.22-1.28,2.34,2.34,0,0,1,.47-.69,2,2,0,0,1,.65-.45,2.77,2.77,0,0,1,1.08-.2,2.33,2.33,0,0,1,1.77.69,2.64,2.64,0,0,1,.66,1.91,2.67,2.67,0,0,1-.65,1.9,2.66,2.66,0,0,1-3.55,0A2.58,2.58,0,0,1,43.46,113.89Zm1,0a1.89,1.89,0,0,0,.39,1.29,1.35,1.35,0,0,0,2,0,2.37,2.37,0,0,0,0-2.59,1.41,1.41,0,0,0-2,0A1.89,1.89,0,0,0,44.5,113.86Z"/><path class="cls-2" d="M48.9,113.89a3.19,3.19,0,0,1,.23-1.28,2.31,2.31,0,0,1,.46-.69,2.11,2.11,0,0,1,.65-.45,2.77,2.77,0,0,1,1.08-.2,2.33,2.33,0,0,1,1.77.69,2.6,2.6,0,0,1,.67,1.91,2.63,2.63,0,0,1-.66,1.9,2.64,2.64,0,0,1-3.54,0A2.58,2.58,0,0,1,48.9,113.89Zm1,0a1.89,1.89,0,0,0,.39,1.29,1.31,1.31,0,0,0,1,.44,1.28,1.28,0,0,0,1-.44,2,2,0,0,0,.38-1.31,1.88,1.88,0,0,0-.37-1.28,1.31,1.31,0,0,0-1-.42,1.32,1.32,0,0,0-1,.42A1.94,1.94,0,0,0,49.94,113.86Z"/><path class="cls-2" d="M54.54,111.36h1.85a3.88,3.88,0,0,1,1,.09,1.72,1.72,0,0,1,.75.46,2.18,2.18,0,0,1,.48.81,3.75,3.75,0,0,1,.17,1.19,3.4,3.4,0,0,1-.16,1.07,2.05,2.05,0,0,1-.54.88,1.68,1.68,0,0,1-.71.4,3,3,0,0,1-.89.11H54.54Zm1,.84v3.32h.75a2.28,2.28,0,0,0,.61,0,1,1,0,0,0,.41-.2,1.07,1.07,0,0,0,.27-.49,3.21,3.21,0,0,0,.1-.92,3,3,0,0,0-.1-.89,1.18,1.18,0,0,0-.29-.48.92.92,0,0,0-.47-.24,4.71,4.71,0,0,0-.83,0Z"/><path class="cls-2" d="M27,125.37h-1.1l-.44-1.14h-2L23,125.37H22l1.95-5H25Zm-1.86-2-.69-1.86-.68,1.86Z"/><path class="cls-2" d="M27.85,125.37l-1.2-5h1l.75,3.44.92-3.44h1.2l.88,3.5.77-3.5h1l-1.22,5H30.94l-1-3.75-1,3.75Z"/><path class="cls-2" d="M37.88,125.37H36.77l-.43-1.14h-2l-.41,1.14H32.85l1.95-5h1.07Zm-1.87-2-.69-1.86-.67,1.86Z"/><path class="cls-2" d="M38.42,125.37v-5h2.12a3.67,3.67,0,0,1,1.17.13,1.13,1.13,0,0,1,.58.48,1.43,1.43,0,0,1,.22.79,1.32,1.32,0,0,1-.33.93,1.6,1.6,0,0,1-1,.47,2.15,2.15,0,0,1,.54.42,4.81,4.81,0,0,1,.58.81l.61,1H41.71L41,124.28a8.33,8.33,0,0,0-.53-.74.85.85,0,0,0-.31-.21,2.05,2.05,0,0,0-.51,0h-.2v2.09Zm1-2.89h.75a3.89,3.89,0,0,0,.9-.06.59.59,0,0,0,.29-.22.62.62,0,0,0,.1-.37.59.59,0,0,0-.13-.41.67.67,0,0,0-.38-.2H39.43Z"/><path class="cls-2" d="M43.46,120.36h1.85a3.88,3.88,0,0,1,1,.09,1.65,1.65,0,0,1,.75.47,2.18,2.18,0,0,1,.48.81,3.64,3.64,0,0,1,.17,1.18,3.4,3.4,0,0,1-.16,1.07,2.05,2.05,0,0,1-.54.88,1.68,1.68,0,0,1-.71.4,3,3,0,0,1-.89.11H43.46Zm1,.85v3.31h.75a3,3,0,0,0,.61,0,1,1,0,0,0,.41-.21,1.07,1.07,0,0,0,.27-.49,3.58,3.58,0,0,0,.1-.91,3.38,3.38,0,0,0-.1-.9,1.18,1.18,0,0,0-.29-.48.92.92,0,0,0-.47-.24,5.05,5.05,0,0,0-.83,0Z"/><path class="cls-2" d="M48.27,123.74l1-.1a1.2,1.2,0,0,0,.36.73,1.07,1.07,0,0,0,.73.23,1.17,1.17,0,0,0,.74-.2.61.61,0,0,0,.25-.49.44.44,0,0,0-.11-.3.86.86,0,0,0-.36-.22l-.81-.22a2.79,2.79,0,0,1-1.14-.49,1.3,1.3,0,0,1-.46-1,1.28,1.28,0,0,1,.84-1.22,2.43,2.43,0,0,1,1-.18,2.11,2.11,0,0,1,1.42.42,1.48,1.48,0,0,1,.5,1.1l-1,0a.85.85,0,0,0-.27-.55,1.07,1.07,0,0,0-.65-.17,1.12,1.12,0,0,0-.68.18.37.37,0,0,0-.17.31.4.4,0,0,0,.15.31,3,3,0,0,0,.93.33,5.4,5.4,0,0,1,1.1.36,1.5,1.5,0,0,1,.55.51,1.53,1.53,0,0,1,.2.8,1.47,1.47,0,0,1-.24.81,1.38,1.38,0,0,1-.68.55,2.66,2.66,0,0,1-1.09.19,2.19,2.19,0,0,1-1.46-.44A1.89,1.89,0,0,1,48.27,123.74Z"/><path class="cls-2" d="M33.07,133.48v.89H29.7a2.39,2.39,0,0,1,.33-1,6.31,6.31,0,0,1,1.08-1.2,7.42,7.42,0,0,0,.8-.82,1.07,1.07,0,0,0,.2-.59.64.64,0,0,0-.18-.49.61.61,0,0,0-.47-.17.65.65,0,0,0-.48.18.93.93,0,0,0-.21.6l-.95-.1a1.54,1.54,0,0,1,.53-1.14,1.81,1.81,0,0,1,1.13-.34,1.63,1.63,0,0,1,1.17.4,1.32,1.32,0,0,1,.42,1,1.78,1.78,0,0,1-.12.65,2.5,2.5,0,0,1-.39.64,5.55,5.55,0,0,1-.62.64c-.31.28-.5.46-.58.55a1.56,1.56,0,0,0-.2.27Z"/><path class="cls-2" d="M35.34,129.34a1.35,1.35,0,0,1,1.14.52,4.49,4.49,0,0,1,0,4.08,1.38,1.38,0,0,1-1.14.52,1.44,1.44,0,0,1-1.18-.57,3.37,3.37,0,0,1-.44-2,3.33,3.33,0,0,1,.49-2A1.37,1.37,0,0,1,35.34,129.34Zm0,.8a.45.45,0,0,0-.31.11.71.71,0,0,0-.21.39,8.08,8.08,0,0,0,0,2.47.85.85,0,0,0,.22.44.51.51,0,0,0,.31.11.49.49,0,0,0,.31-.11.73.73,0,0,0,.22-.4,5.81,5.81,0,0,0,.1-1.25,5.36,5.36,0,0,0-.09-1.21.85.85,0,0,0-.23-.44A.44.44,0,0,0,35.34,130.14Z"/><path class="cls-2" d="M40.07,134.37h-1v-3.62a3.29,3.29,0,0,1-1.24.73v-.87a3.08,3.08,0,0,0,.82-.47,1.82,1.82,0,0,0,.6-.8h.78Z"/><path class="cls-2" d="M41.52,133.08l1-.1a.77.77,0,0,0,.24.52.68.68,0,0,0,.46.19.63.63,0,0,0,.51-.25,1.1,1.1,0,0,0,.21-.73,1.08,1.08,0,0,0-.2-.7.71.71,0,0,0-.54-.23.94.94,0,0,0-.74.37l-.78-.11.49-2.61h2.54v.9H42.86l-.15.85a1.39,1.39,0,0,1,.65-.16,1.45,1.45,0,0,1,1.09.46,1.7,1.7,0,0,1,.44,1.21,1.79,1.79,0,0,1-.36,1.1,1.6,1.6,0,0,1-1.36.67,1.68,1.68,0,0,1-1.13-.38A1.53,1.53,0,0,1,41.52,133.08Z"/><path class="cls-2" d="M68.46,6V138.45H6V6H68.46m1.2-1.2H4.82V139.65H69.66V4.83Z"/></svg>